<?xml version="1.0" encoding="UTF-8" standalone="no"?>
<!-- Created with Inkscape (http://www.inkscape.org/) -->

<svg
   xmlns:dc="http://purl.org/dc/elements/1.1/"
   xmlns:cc="http://creativecommons.org/ns#"
   xmlns:rdf="http://www.w3.org/1999/02/22-rdf-syntax-ns#"
   xmlns:svg="http://www.w3.org/2000/svg"
   xmlns="http://www.w3.org/2000/svg"
   xmlns:sodipodi="http://sodipodi.sourceforge.net/DTD/sodipodi-0.dtd"
   xmlns:inkscape="http://www.inkscape.org/namespaces/inkscape"
   width="13"
   height="13"
   viewBox="0 0 6.3499868 6.3499868"
   version="1.1"
   id="svg4581"
   inkscape:version="0.92.1 r15371"
   sodipodi:docname="tdw.svg">
  <defs
     id="defs4575" />
  <sodipodi:namedview
     id="base"
     pagecolor="#ffffff"
     bordercolor="#666666"
     borderopacity="1.0"
     inkscape:pageopacity="0.0"
     inkscape:pageshadow="2"
     inkscape:zoom="40"
     inkscape:cx="6.2614546"
     inkscape:cy="7.1360388"
     inkscape:document-units="mm"
     inkscape:current-layer="layer1"
     showgrid="false"
     units="px"
     inkscape:window-width="1920"
     inkscape:window-height="1017"
     inkscape:window-x="1358"
     inkscape:window-y="-8"
     inkscape:window-maximized="1" />
  <metadata
     id="metadata4578">
    <rdf:RDF>
      <cc:Work
         rdf:about="">
        <dc:format>image/svg+xml</dc:format>
        <dc:type
           rdf:resource="http://purl.org/dc/dcmitype/StillImage" />
        <dc:title></dc:title>
      </cc:Work>
    </rdf:RDF>
  </metadata>
  <g
     inkscape:label="Ebene 1"
     inkscape:groupmode="layer"
     id="layer1"
     transform="translate(0,-293.56042)">
    <path
       style="fill:none;fill-opacity:0.94901961;stroke:#91979c;stroke-width:0.4984605;stroke-miterlimit:4;stroke-dasharray:none;stroke-opacity:1"
       d="m 1.5139905,296.64744 c 0.9288137,-0.58789 2.4341383,-0.58789 3.3629559,0 0.928819,0.58788 0.928819,1.54261 0,2.12576 -0.9288176,0.58788 -2.4341422,0.58788 -3.3629559,0 -0.92882151,-0.58788 -0.92882151,-1.5379 0,-2.12576 z"
       id="path4487"
       inkscape:connector-curvature="0" />
    <path
       style="fill:#0f1c26;fill-opacity:1;fill-rule:nonzero;stroke:#91979c;stroke-width:0.4984605;stroke-miterlimit:4;stroke-dasharray:none;stroke-opacity:1"
       d="m 1.0912462,295.39823 c 1.1438714,-0.69603 2.9969232,-0.69603 4.1407889,0 1.1438682,0.69606 1.1438682,1.82948 0,2.52553 -1.1438657,0.69606 -2.9969175,0.69606 -4.1407889,0 -1.14386328,-0.69605 -1.14385544,-1.82478 0,-2.52553 z"
       id="path4491"
       inkscape:connector-curvature="0" />
    <path
       style="fill:#0f1c26;fill-opacity:0.99090911;stroke:#91979c;stroke-width:0.4984605;stroke-miterlimit:4;stroke-dasharray:none;stroke-opacity:1"
       d="m 3.1837368,294.10044 c 0.944469,0 1.7094353,0.75987 1.7094353,1.69805 0,0.93817 -0.7649663,1.35846 -1.7094353,1.35846 -0.9444613,0 -1.7094284,-0.42029 -1.7094284,-1.35846 0,-0.93818 0.7649671,-1.69805 1.7094284,-1.69805 z"
       id="path4495"
       inkscape:connector-curvature="0" />
    <g
       transform="matrix(0.0070928,0,0,0.0070928,-0.07656263,293.53042)"
       id="g4511" />
    <g
       transform="matrix(0.0070928,0,0,0.0070928,-0.07656263,293.53042)"
       id="g4513" />
    <g
       transform="matrix(0.0070928,0,0,0.0070928,-0.07656263,293.53042)"
       id="g4515" />
    <g
       transform="matrix(0.0070928,0,0,0.0070928,-0.07656263,293.53042)"
       id="g4517" />
    <g
       transform="matrix(0.0070928,0,0,0.0070928,-0.07656263,293.53042)"
       id="g4519" />
    <g
       transform="matrix(0.0070928,0,0,0.0070928,-0.07656263,293.53042)"
       id="g4521" />
    <g
       transform="matrix(0.0070928,0,0,0.0070928,-0.07656263,293.53042)"
       id="g4523" />
    <g
       transform="matrix(0.0070928,0,0,0.0070928,-0.07656263,293.53042)"
       id="g4525" />
    <g
       transform="matrix(0.0070928,0,0,0.0070928,-0.07656263,293.53042)"
       id="g4527" />
    <g
       transform="matrix(0.0070928,0,0,0.0070928,-0.07656263,293.53042)"
       id="g4529" />
    <g
       transform="matrix(0.0070928,0,0,0.0070928,-0.07656263,293.53042)"
       id="g4531" />
    <g
       transform="matrix(0.0070928,0,0,0.0070928,-0.07656263,293.53042)"
       id="g4533" />
    <g
       transform="matrix(0.0070928,0,0,0.0070928,-0.07656263,293.53042)"
       id="g4535" />
    <g
       transform="matrix(0.0070928,0,0,0.0070928,-0.07656263,293.53042)"
       id="g4537" />
    <g
       transform="matrix(0.0070928,0,0,0.0070928,-0.07656263,293.53042)"
       id="g4539" />
  </g>
</svg>
